<svg width="146" height="23" viewBox="0 0 146 23" fill="none" xmlns="http://www.w3.org/2000/svg">
<path d="M0.0971573 0.48921C0.0984336 0.21403 0.28288 0.000850872 0.55806 0.00212718L4.93037 0.0224063C5.17497 0.0235408 5.38801 0.238563 5.38673 0.513744L5.35327 7.72958C5.35242 7.91303 5.47401 8.06648 5.65732 8.09791C5.84063 8.12933 6.02465 8.00788 6.05594 7.85515L7.83335 0.402786C7.86492 0.188898 8.04908 0.0368711 8.29368 0.0380056L12.6966 0.0584265C12.8494 0.0591356 12.9713 0.15143 13.0625 0.274158C13.1536 0.396886 13.1837 0.519329 13.1218 0.671925L9.95685 10.6251C9.92585 10.7167 9.92542 10.8084 9.95557 10.9003L13.0281 20.8824C13.0886 21.005 13.0574 21.1577 12.9651 21.2796C12.8728 21.4015 12.7502 21.462 12.5973 21.4613L8.19442 21.4409C7.94981 21.4398 7.76692 21.3166 7.73734 21.1025L6.02913 13.6339C5.99941 13.4503 5.81638 13.3578 5.63279 13.3875C5.44919 13.4172 5.32618 13.5695 5.32533 13.753L5.29186 20.9688C5.29059 21.244 5.07571 21.4265 4.8311 21.4253L0.458792 21.405C0.183611 21.4038 0.00100875 21.2195 0.00228506 20.9443L0.0971573 0.48921Z" fill="#4B372F"/>
<path d="M124.72 1.07051C124.722 0.796947 124.907 0.58503 125.183 0.586311C127.977 0.59927 130.771 0.612228 133.565 0.625187C133.811 0.626326 134.025 0.840095 134.024 1.08326L134.905 16.316C134.935 16.4985 135.087 16.6512 135.272 16.6521C135.456 16.6529 135.641 16.5018 135.642 16.3194L136.633 1.09537C136.665 0.852342 136.881 0.640566 137.127 0.641706C139.921 0.654664 142.715 0.667623 145.509 0.680582C145.785 0.681863 145.999 0.895632 145.998 1.1692L145.903 21.504C145.902 21.7776 145.686 21.959 145.41 21.9577L141.05 21.9375C140.774 21.9362 140.56 21.7528 140.561 21.4793L140.632 6.25093C140.632 6.09895 140.51 5.9464 140.357 5.94569C140.173 5.91443 140.018 6.03531 139.987 6.21754L137.981 21.5585C137.95 21.7711 137.734 21.9221 137.519 21.9211L132.975 21.9C132.76 21.899 132.546 21.7461 132.516 21.5331L130.653 6.17425C130.623 5.99173 130.47 5.86944 130.317 5.89912C130.133 5.89827 130.009 6.04967 130.008 6.20165L129.938 21.43C129.936 21.7036 129.721 21.8849 129.444 21.8837L125.085 21.8634C124.808 21.8622 124.625 21.6789 124.626 21.4054L124.72 1.07051Z" fill="#4B372F"/>
<path d="M27.8663 0.621439C27.8675 0.346259 28.052 0.13308 28.3272 0.134356L32.6995 0.154635C32.9441 0.15577 33.1571 0.370792 33.1558 0.645973C33.1324 5.69094 33.109 10.7359 33.0855 15.8115C33.0844 16.0561 33.2974 16.2711 33.542 16.2722L40.5438 16.3047C40.819 16.306 41.032 16.521 41.0309 16.7656L41.0106 21.1379C41.0093 21.4131 40.7945 21.5956 40.5193 21.5943L28.2279 21.5373C27.9527 21.536 27.7701 21.3517 27.7714 21.0765C27.803 14.2582 27.8346 7.43979 27.8663 0.621439Z" fill="#4B372F"/>
<path d="M43.3235 5.98282C43.3246 5.73822 43.1422 5.52334 42.867 5.52206L39.84 5.50802C39.5648 5.50674 39.3824 5.29186 39.3836 5.01668L39.4038 0.674951C39.405 0.399771 39.5895 0.186592 39.8647 0.187868L52.1561 0.244876C52.4312 0.246153 52.6443 0.461175 52.643 0.736356L52.6229 5.07809C52.6216 5.35327 52.4066 5.56631 52.1314 5.56503L49.1044 5.55099C48.8598 5.54985 48.6449 5.73232 48.6436 6.0075L48.5733 21.173C48.572 21.4482 48.3571 21.6306 48.082 21.6294L43.7402 21.6092C43.465 21.6079 43.2519 21.4235 43.2531 21.1483L43.3235 5.98282Z" fill="#4B372F"/>
<path d="M53.754 0.741508C53.7553 0.466328 53.9397 0.253149 54.2149 0.254425L58.5566 0.274563C58.8318 0.275839 59.0448 0.490862 59.0436 0.766042L59.0105 7.89015C59.0094 8.13476 59.2224 8.34978 59.467 8.35091L61.1793 8.35886C61.4544 8.36013 61.6389 8.14695 61.64 7.90235L61.6731 0.778238C61.6743 0.503057 61.8894 0.29002 62.1645 0.291296L66.5063 0.311434C66.7815 0.31271 66.9945 0.527733 66.9932 0.802913L66.8983 21.258C66.8971 21.5332 66.6822 21.7156 66.407 21.7143L62.0653 21.6942C61.7901 21.6929 61.5769 21.5085 61.5782 21.2333L61.6112 14.1092C61.6124 13.8646 61.4299 13.6497 61.1547 13.6484L59.4425 13.6405C59.1979 13.6394 58.9829 13.8524 58.9817 14.097L58.9487 21.2211C58.9474 21.4963 58.7325 21.6788 58.4574 21.6775L54.1156 21.6573C53.8404 21.6561 53.6578 21.4718 53.6591 21.1966L53.754 0.741508Z" fill="#4B372F"/>
<path d="M75.0761 6.00779C75.0771 5.79376 74.9248 5.67075 74.7107 5.66975C74.5273 5.6689 74.3738 5.7905 74.3423 6.00438L73.8502 13.2181C73.8496 13.3404 73.9102 13.463 73.9709 13.555C74.0622 13.6471 74.1842 13.7089 74.3371 13.7096L75.0403 13.7128C75.1626 13.7134 75.2851 13.6834 75.3774 13.5615C75.4695 13.4702 75.5313 13.3482 75.5012 13.2258L75.0761 6.00779ZM81.2122 21.2938C81.2422 21.4162 81.1804 21.5383 81.0883 21.6296C80.996 21.7514 80.8736 21.7814 80.7513 21.7809L76.4707 21.761C76.2261 21.7599 76.0129 21.5754 75.9834 21.3307L75.8698 19.465C75.8709 19.2204 75.6579 19.0054 75.4133 19.0043L73.9151 18.9973C73.6705 18.9962 73.4555 19.2092 73.4237 19.4537L73.2928 21.3182C73.2917 21.5628 73.0768 21.7453 72.8322 21.7441L68.5516 21.7243C68.3987 21.7236 68.2766 21.6924 68.216 21.5699C68.1247 21.4777 68.0641 21.3551 68.0952 21.233L70.4528 0.757806C70.4846 0.513344 70.6689 0.33074 70.9135 0.331875L78.5879 0.367469C78.802 0.368462 79.0151 0.55291 79.0446 0.797655L81.2122 21.2938Z" fill="#4B372F"/>
<path d="M89.0651 11.1177C90.5939 11.1248 90.3875 9.47277 90.3924 8.4332C90.3972 7.39363 90.6494 5.74368 89.0901 5.73645L88.234 5.73248C87.9894 5.73134 87.7745 5.9138 87.7732 6.18898L87.7525 10.653C87.7512 10.9282 87.9644 11.1126 88.209 11.1138L89.0651 11.1177ZM82.5082 0.874873C82.5094 0.599692 82.6939 0.386513 82.9691 0.387789L89.1148 0.416294C93.9457 0.4387 95.7321 4.23844 95.7125 8.45787C95.6929 12.6773 93.8714 16.4603 89.0405 16.4379L88.1843 16.4339C87.9397 16.4328 87.7247 16.6458 87.7236 16.8904L87.7029 21.3545C87.7016 21.6297 87.4867 21.8121 87.2421 21.811L82.8698 21.7907C82.5946 21.7894 82.412 21.6051 82.4133 21.3299L82.5082 0.874873Z" fill="#4B372F"/>
<path d="M103.397 11.1842C104.926 11.1913 104.72 9.53924 104.725 8.49967C104.729 7.4601 104.982 5.81015 103.422 5.80292L102.566 5.79895C102.322 5.79782 102.107 5.98028 102.106 6.25546L102.085 10.7195C102.084 10.9947 102.297 11.1791 102.541 11.1803L103.397 11.1842ZM96.8405 0.941347C96.8417 0.666167 97.0262 0.452988 97.3014 0.454264L103.447 0.482768C108.278 0.505174 110.064 4.30491 110.045 8.52435C110.025 12.7438 108.204 16.5268 103.373 16.5044L102.517 16.5004C102.272 16.4993 102.057 16.7123 102.056 16.9569L102.035 21.4209C102.034 21.6961 101.819 21.8786 101.574 21.8775L97.2021 21.8572C96.9269 21.8559 96.7443 21.6716 96.7456 21.3964L96.8405 0.941347Z" fill="#4B372F"/>
<path d="M117.028 6.20236C117.029 5.98833 116.877 5.86532 116.663 5.86433C116.479 5.86348 116.326 5.98507 116.294 6.19896L115.802 13.4127C115.801 13.535 115.862 13.6576 115.923 13.7496C116.014 13.8417 116.136 13.9034 116.289 13.9041L116.992 13.9074C117.114 13.908 117.237 13.878 117.329 13.7561C117.421 13.6648 117.483 13.5428 117.453 13.4203L117.028 6.20236ZM123.164 21.4884C123.194 21.6108 123.132 21.7328 123.04 21.8241C122.948 21.946 122.825 21.976 122.703 21.9755L118.423 21.9556C118.178 21.9545 117.965 21.77 117.935 21.5253L117.822 19.6596C117.823 19.415 117.61 19.2 117.365 19.1988L115.867 19.1919C115.622 19.1907 115.407 19.4038 115.376 19.6482L115.245 21.5128C115.244 21.7574 115.029 21.9399 114.784 21.9387L110.503 21.9189C110.351 21.9182 110.228 21.887 110.168 21.7644C110.077 21.6723 110.016 21.5497 110.047 21.4275L112.405 0.952382C112.436 0.70792 112.621 0.525316 112.865 0.526451L120.54 0.562045C120.754 0.563038 120.967 0.747486 120.996 0.992231L123.164 21.4884Z" fill="#4B372F"/>
<circle cx="15.9793" cy="18.8084" r="0.258996" transform="rotate(0.26574 15.9793 18.8084)" fill="#C1A170" stroke="#4B372F" stroke-width="0.188933"/>
<circle cx="20.94" cy="16.0021" r="0.258996" transform="rotate(0.26574 20.94 16.0021)" fill="#C1A170" stroke="#4B372F" stroke-width="0.188933"/>
<circle cx="18.139" cy="10.3377" r="0.258996" transform="rotate(0.26574 18.139 10.3377)" fill="#C1A170" stroke="#4B372F" stroke-width="0.188933"/>
<circle cx="21.6964" cy="5.40502" r="0.258996" transform="rotate(0.26574 21.6964 5.40502)" fill="#C1A170" stroke="#4B372F" stroke-width="0.188933"/>
<circle cx="21.7158" cy="1.16103" r="0.258996" transform="rotate(0.26574 21.7158 1.16103)" fill="#C1A170" stroke="#4B372F" stroke-width="0.188933"/>
<circle cx="23.0775" cy="12.4812" r="0.258996" transform="rotate(0.26574 23.0775 12.4812)" fill="#C1A170" stroke="#4B372F" stroke-width="0.188933"/>
<circle cx="24.4683" cy="17.4354" r="0.258996" transform="rotate(0.26574 24.4683 17.4354)" fill="#C1A170" stroke="#4B372F" stroke-width="0.188933"/>
<circle cx="23.0474" cy="18.8429" r="0.258996" transform="rotate(0.26574 23.0474 18.8429)" fill="#C1A170" stroke="#4B372F" stroke-width="0.188933"/>
<path fill-rule="evenodd" clip-rule="evenodd" d="M21.8554 0.104909C22.4068 0.107539 22.8724 0.529562 22.9682 1.06223L23.9224 5.46612C22.9269 5.76366 22.2021 6.6543 22.1971 7.71009C22.1911 9.0143 23.2858 10.0764 24.6422 10.0828C24.7363 10.0832 24.8292 10.077 24.9206 10.0675L26.6761 18.1607C26.411 18.0736 26.128 18.0253 25.8339 18.0239C24.321 18.017 23.0881 19.2386 23.081 20.7514C23.0799 20.988 23.1122 21.2172 23.1677 21.4364L14.6326 21.3968C14.4549 21.396 14.0153 21.3643 13.7537 20.967C13.5995 20.7812 13.4315 20.4664 13.5235 20.0762L13.5225 20.0762L14.1337 17.3769C14.9332 17.2335 15.544 16.5022 15.5481 15.6168C15.5508 15.0233 15.2795 14.497 14.8605 14.1683L17.8325 1.05306C17.9217 0.540714 18.3475 0.0886386 18.958 0.09147L21.8554 0.104909Z" fill="#4B372F"/>
<path d="M18.4989 8.92578L19.2123 7.51523L19.5593 8.9307L18.4989 8.92578Z" fill="#C1A170"/>
<path d="M19.7212 4.61593L19.895 3.04478L20.716 4.24887L19.7212 4.61593Z" fill="#C1A170"/>
<path d="M18.452 18.988L19.7725 18.119L19.3696 19.5196L18.452 18.988Z" fill="#C1A170"/>
<path d="M22.3931 15.1918L22.8952 13.6929L23.443 15.0434L22.3931 15.1918Z" fill="#C1A170"/>
<path d="M19.5306 12.818L19.0284 14.3169L18.4806 12.9664L19.5306 12.818Z" fill="#C1A170"/>
</svg>
